<svg width="800px" height="800px" viewBox="0 0 24 24" fill="none" xmlns="http://www.w3.org/2000/svg">
    <path id="bus" fill-rule="evenodd" clip-rule="evenodd"
          d="M5.25 3.75L4.5 4.5V6.75C3.25736 6.75 2.25 7.75736 2.25 9V10.5C2.25 11.7426 3.25736 12.75 4.5 12.75V20.3864L5.25 21.1364H8.625L9.375 20.3864V19.5H14.625V20.3864L15.375 21.1364H18.75L19.5 20.3864V12.75C20.7426 12.75 21.75 11.7426 21.75 10.5V9C21.75 7.75736 20.7426 6.75 19.5 6.75V4.5L18.75 3.75H5.25ZM19.5 8.25V11.25C19.9142 11.25 20.25 10.9142 20.25 10.5V9C20.25 8.58579 19.9142 8.25 19.5 8.25ZM4.5 11.25V8.25C4.08579 8.25 3.75 8.58579 3.75 9L3.75 10.5C3.75 10.9142 4.08579 11.25 4.5 11.25ZM6 19.6364V5.25H6.75V12C6.75 13.2426 7.75736 14.25 9 14.25H15C16.2426 14.25 17.25 13.2426 17.25 12V5.25H18V19.6364H16.125V18.75L15.375 18H8.625L7.875 18.75V19.6364H6ZM15.75 5.25H8.25V12C8.25 12.4142 8.58579 12.75 9 12.75H15C15.4142 12.75 15.75 12.4142 15.75 12V5.25ZM9.75 7.5L14.25 7.5V6L9.75 6V7.5ZM9.75 16.125C9.75 16.7463 9.24632 17.25 8.625 17.25C8.00368 17.25 7.5 16.7463 7.5 16.125C7.5 15.5037 8.00368 15 8.625 15C9.24632 15 9.75 15.5037 9.75 16.125ZM15.375 17.25C15.9963 17.25 16.5 16.7463 16.5 16.125C16.5 15.5037 15.9963 15 15.375 15C14.7537 15 14.25 15.5037 14.25 16.125C14.25 16.7463 14.7537 17.25 15.375 17.25Z"
          fill="#080341"/>
    <path id="bike" fill-rule="evenodd" clip-rule="evenodd"
          d="M17.1945 6H14.25V7.5H15.8055L16.0362 10.5H13.5H12.9343H9V9.75H9.75V8.25H6V9.75H7.5V11.145L7.0383 12.7609C6.94315 12.7537 6.847 12.75 6.75 12.75C4.67893 12.75 3 14.4289 3 16.5C3 18.5711 4.67893 20.25 6.75 20.25C8.56422 20.25 10.0775 18.9617 10.425 17.25H12.5657L14.0657 12H16.1516L16.2203 12.8931C14.6499 13.3406 13.5 14.786 13.5 16.5C13.5 18.5711 15.1789 20.25 17.25 20.25C19.3211 20.25 21 18.5711 21 16.5C21 14.5867 19.5671 13.0081 17.716 12.7787L17.1945 6ZM6.61165 14.2542L6.02886 16.294L7.47114 16.706L8.05397 14.6662C8.62657 15.074 9 15.7434 9 16.5C9 17.7426 7.99264 18.75 6.75 18.75C5.50736 18.75 4.5 17.7426 4.5 16.5C4.5 15.3038 5.43344 14.3257 6.61165 14.2542ZM8.48075 13.1724L8.81573 12H12.5057L11.4343 15.75H10.425C10.1971 14.6273 9.46767 13.6868 8.48075 13.1724ZM16.3395 14.4419L16.5022 16.5575L17.9978 16.4425L17.835 14.3268C18.794 14.5843 19.5 15.4597 19.5 16.5C19.5 17.7426 18.4926 18.75 17.25 18.75C16.0074 18.75 15 17.7426 15 16.5C15 15.5814 15.5504 14.7914 16.3395 14.4419Z"
          fill="#080341"/>
</svg>